Coordinates
version=1
nRows=17
nColumns=24
inDegrees=yes

Units are S.I. units (second, meters, Newtons, ...)
Angles are in degrees.

endheader
time	pelvis_tilt	pelvis_list	pelvis_rotation	pelvis_tx	pelvis_ty	pelvis_tz	hip_flexion_r	hip_adduction_r	hip_rotation_r	knee_angle_r	ankle_angle_r	subtalar_angle_r	mtp_angle_r	hip_flexion_l	hip_adduction_l	hip_rotation_l	knee_angle_l	ankle_angle_l	subtalar_angle_l	mtp_angle_l	lumbar_extension	lumbar_bending	lumbar_rotation
      1.39600000	      1.73021667	      7.72926972	     -4.89728512	      0.24613566	      1.02060707	      0.31589097	     13.51766832	     -8.61785838	      1.87940338	    -62.86275947	      5.28898375	    -14.43626981	      0.45299230	      5.16394723	     12.93273969	      0.27120839	     -9.36599848	     -0.53942277	    -19.84663394	      6.80992579	     -4.91734439	     -9.76753896	      6.73970047
      1.40016667	      1.69358000	      7.60088220	     -4.74906187	      0.25112625	      1.02127212	      0.31580517	     13.99567632	     -8.41784724	      1.83383513	    -62.24472539	      5.54279433	    -14.36412599	      0.44351634	      4.67781740	     12.82669264	      0.46698621	     -9.02313460	     -0.45903268	    -19.76630472	      6.78526346	     -4.92775764	     -9.61146775	      6.60012172
      1.40433333	      1.70442707	      7.48865814	     -4.58878826	      0.25608885	      1.02195157	      0.31569593	     14.41095670	     -8.25215649	      1.76445469	    -61.58761575	      5.77760723	    -14.24416560	      0.41798395	      4.12381427	     12.74823400	      0.75570901	     -8.64428732	     -0.38180707	    -19.80550217	      6.72128929	     -5.00376248	     -9.51032822	      6.18453929
      1.40850000	      1.70085324	      7.37297818	     -4.42489548	      0.26104276	      1.02257596	      0.31560333	     14.82934450	     -8.08029699	      1.68913612	    -60.88994129	      6.01375840	    -14.14500404	      0.39605559	      3.59408086	     12.65621930	      1.00805581	     -8.27756717	     -0.32541718	    -19.80278731	      6.65754766	     -5.05936141	     -9.39147115	      5.88677463
      1.41266667	      1.69493470	      7.26310366	     -4.25463870	      0.26598736	      1.02316497	      0.31551033	     15.23880881	     -7.91864497	      1.60384153	    -60.15477992	      6.23971689	    -14.04155930	      0.37630249	      3.06889107	     12.56656616	      1.26378622	     -7.91141671	     -0.27090446	    -19.79523328	      6.59158343	     -5.11437196	     -9.27989496	      5.57425121
      1.41683333	      1.67524524	      7.15362501	     -4.08115318	      0.27091755	      1.02369054	      0.31543092	     15.65272427	     -7.75584489	      1.51684356	    -59.38508477	      6.45664274	    -13.95506069	      0.35599980	      2.56176085	     12.47122262	      1.52060623	     -7.54701208	     -0.23197316	    -19.78567806	      6.51496079	     -5.15924467	     -9.17174931	      5.25481245
      1.42100000	      1.66390945	      7.04622682	     -3.90357083	      0.27584695	      1.02418814	      0.31533826	     16.04528450	     -7.60738186	      1.40780330	    -58.57761922	      6.64559535	    -13.84618868	      0.34278738	      2.05391174	     12.37476126	      1.75731428	     -7.20005909	     -0.14833286	    -19.75917608	      6.45508006	     -5.20046809	     -9.05692343	      4.97128835
      1.42516667	      1.65144147	      6.93773662	     -3.71902875	      0.28075878	      1.02464831	      0.31524262	     16.42473333	     -7.45839135	      1.29458993	    -57.73306944	      6.82389173	    -13.75685567	      0.33034840	      1.54850351	     12.27412164	      2.00839874	     -6.85027038	     -0.08209238	    -19.73970112	      6.39357154	     -5.24956913	     -8.94538123	      4.64880695
      1.42933333	      1.59823703	      6.83028684	     -3.53515560	      0.28566458	      1.02501518	      0.31517503	     16.83925612	     -7.30582420	      1.18572552	    -56.85855246	      7.00871946	    -13.67198478	      0.32676091	      1.10558689	     12.16298907	      2.20701752	     -6.53134677	     -0.03533347	    -19.65612945	      6.36521216	     -5.25146282	     -8.83284501	      4.46676744
      1.43350000	      1.59983716	      6.73797923	     -3.34997017	      0.29054404	      1.02540341	      0.31509256	     17.18697990	     -7.18429717	      1.06044407	    -55.95895043	      7.14358966	    -13.60310170	      0.31483723	      0.58582987	     12.07518601	      2.49192128	     -6.17461000	      0.04286430	    -19.68029363	      6.29890936	     -5.32821358	     -8.74620079	      4.01188919
      1.43766667	      1.57904751	      6.64702615	     -3.16426026	      0.29543544	      1.02571364	      0.31501029	     17.54737484	     -7.06950396	      0.92315480	    -55.03055611	      7.27735496	    -13.52565738	      0.30549994	      0.10552838	     11.98148457	      2.72213029	     -5.84469590	      0.11800410	    -19.66175407	      6.24142723	     -5.35808198	     -8.64786886	      3.71880302
      1.44183333	      1.55906103	      6.55528943	     -2.98050880	      0.30030018	      1.02598824	      0.31494572	     17.89602810	     -6.95163546	      0.79269019	    -54.07178254	      7.39448565	    -13.47140956	      0.29539751	     -0.37015013	     11.88248826	      2.96147878	     -5.52006947	      0.17948979	    -19.64010629	      6.17797878	     -5.40701747	     -8.55754163	      3.39769503
      1.44600000	      1.49726848	      6.46514804	     -2.79447261	      0.30518293	      1.02617545	      0.31489055	     18.27575420	     -6.83578741	      0.65783422	    -53.08197016	      7.50635458	    -13.40252884	      0.29116092	     -0.78093237	     11.77740264	      3.14812359	     -5.23381648	      0.24246296	    -19.56976843	      6.14889516	     -5.39157583	     -8.46168217	      3.21583696
      1.45016667	      1.47169980	      6.39749534	     -2.61617836	      0.31002392	      1.02633315	      0.31484003	     18.61993806	     -6.75248212	      0.52190879	    -52.08753465	      7.57058423	    -13.38087088	      0.27977178	     -1.24383455	     11.69945180	      3.40007373	     -4.91249396	      0.32782798	    -19.57668298	      6.08612806	     -5.43677920	     -8.40283066	      2.79711864
      1.45433333	      1.43657051	      6.32460199	     -2.43945721	      0.31487143	      1.02645383	      0.31479507	     18.95730162	     -6.66621360	      0.37938410	    -51.05825542	      7.63309392	    -13.34569847	      0.26858551	     -1.68449184	     11.61117263	      3.61838368	     -4.61315725	      0.39832276	    -19.55742971	      6.02337018	     -5.46149995	     -8.33131861	      2.50919710
      1.45850000	      1.36847928	      6.25446438	     -2.26181607	      0.31972810	      1.02648455	      0.31475038	     19.31814976	     -6.58635175	      0.23065597	    -50.00325008	      7.67839587	    -13.30070085	      0.26162032	     -2.06950082	     11.52133068	      3.79920600	     -4.35403846	      0.48630379	    -19.50856962	      5.98831923	     -5.43448972	     -8.25647976	      2.31151204
      1.46266667	      1.32567663	      6.18773221	     -2.09306098	      0.32457533	      1.02651592	      0.31472711	     19.64046355	     -6.51097865	      0.08652703	    -48.92306914	      7.69237412	    -13.28947210	      0.25287482	     -2.48466050	     11.43381889	      3.99301987	     -4.08609866	      0.57874040	    -19.47063448	      5.95223903	     -5.44732334	     -8.18810915	      2.04909810
